<?xml version="1.0" standalone="no"?>
<!DOCTYPE svg PUBLIC "-//W3C//DTD SVG 20010904//EN"
 "http://www.w3.org/TR/2001/REC-SVG-20010904/DTD/svg10.dtd">
<svg version="1.0" xmlns="http://www.w3.org/2000/svg"
 width="305.000000pt" height="68.000000pt" viewBox="0 0 305.000000 68.000000"
 preserveAspectRatio="xMidYMid meet">
<metadata>
Created by potrace 1.16, written by Peter Selinger 2001-2019
</metadata>
<g transform="translate(0.000000,68.000000) scale(0.100000,-0.100000)"
fill="#000000" stroke="none">
<path d="M1492 548 c-12 -6 -25 -21 -28 -33 l-6 -22 -49 18 c-28 11 -54 17
-60 14 -13 -9 -11 -82 4 -124 12 -35 47 -73 91 -98 14 -8 16 -12 6 -13 -21 0
-60 -61 -60 -94 0 -15 5 -47 11 -71 l11 -44 34 36 c32 34 35 35 52 19 26 -23
28 -21 47 29 19 49 31 50 43 4 l7 -31 20 24 c15 17 16 19 3 9 -15 -11 -18 -11
-18 1 0 8 -9 23 -20 33 -25 22 -27 44 -2 23 23 -20 50 -30 90 -33 41 -3 49 13
28 56 -15 31 -15 33 4 51 25 23 26 38 3 37 -12 0 -13 -2 -5 -6 10 -4 10 -8 1
-19 -15 -18 -39 -17 -63 1 -20 15 -20 15 0 15 12 0 15 3 8 8 -8 5 2 31 32 82
43 73 44 75 22 78 -12 2 -24 -1 -26 -7 -2 -6 -9 -11 -16 -11 -6 0 -28 -11 -48
-25 -37 -25 -37 -25 -48 -5 -10 18 -7 22 22 35 27 11 29 14 11 15 -12 0 -25
-4 -28 -10 -15 -24 -27 -8 -23 30 4 43 -6 49 -50 28z m-49 -64 c74 -37 101
-81 91 -145 -6 -36 -9 -39 -39 -39 -45 0 -96 37 -122 90 -22 41 -31 109 -17
123 7 6 36 -4 87 -29z"/>
<path d="M2030 540 c-1 -3 -3 -23 -4 -46 -1 -24 -12 -54 -26 -74 -33 -47 -37
-20 -6 37 15 25 24 48 22 51 -6 5 -51 -85 -59 -119 -6 -22 -13 -27 -54 -32
-99 -13 -164 -44 -163 -79 0 -7 5 -5 11 5 6 11 26 25 44 33 28 11 41 11 90 -1
61 -16 91 -29 117 -52 11 -10 18 -11 23 -3 7 11 0 25 -13 25 -24 0 -122 41
-119 50 7 20 199 17 308 -5 56 -12 110 -25 119 -30 9 -5 22 -26 28 -47 6 -21
25 -54 42 -73 l31 -35 -6 35 c-3 19 -14 52 -24 73 -18 37 -14 50 8 23 7 -8 26
-12 47 -10 36 3 61 14 31 14 -9 0 -67 12 -128 27 -124 29 -126 39 -11 53 l67
9 -70 -4 c-38 -2 -79 -7 -90 -11 -18 -7 -19 -6 -6 10 22 27 90 58 112 51 18
-6 28 13 14 27 -10 10 -119 -51 -140 -78 -19 -24 -23 -25 -65 -15 -25 6 -69
11 -97 11 l-53 0 35 46 c20 26 33 49 30 52 -7 7 -46 -29 -40 -38 2 -4 -5 -16
-18 -26 -21 -19 -21 -19 -7 0 8 10 15 24 15 30 1 6 5 27 9 48 6 30 3 85 -4 68z"/>
<path d="M1034 463 c4 -27 8 -55 10 -65 1 -9 8 -23 15 -32 8 -9 9 -16 3 -16
-14 0 -36 29 -28 37 7 7 -22 43 -36 43 -12 0 16 -52 42 -75 l22 -20 -99 -12
-98 -12 -30 28 c-39 37 -113 74 -132 66 -22 -8 -7 -19 28 -21 31 -2 109 -47
109 -64 0 -16 -37 -29 -160 -55 -63 -13 -105 -24 -92 -24 21 -1 16 -8 -33 -53
-32 -29 -53 -54 -47 -56 18 -6 73 28 124 76 26 25 51 43 53 40 3 -3 -4 -25
-15 -49 -11 -24 -20 -53 -20 -63 0 -34 47 20 69 78 17 46 23 52 62 64 71 21
228 42 309 41 l75 0 -77 -23 c-101 -30 -207 -78 -208 -93 0 -19 13 -16 32 6
21 24 165 80 226 87 59 7 43 -6 -39 -32 -32 -10 -59 -25 -59 -31 0 -17 15 -16
29 1 17 20 127 56 173 56 28 0 46 -7 64 -26 15 -14 24 -19 22 -12 -9 26 -70
57 -138 69 -63 11 -71 15 -76 38 -7 29 -72 151 -81 151 -3 0 -3 -21 1 -47z"/>
<path d="M2930 460 c0 -53 -61 -121 -129 -145 -58 -20 -58 -20 -22 20 36 42
66 95 52 95 -11 0 -24 -19 -28 -39 -2 -19 -56 -84 -73 -89 -20 -7 14 46 49 75
14 13 21 23 15 23 -6 0 -17 -7 -24 -15 -18 -22 -33 -19 -20 4 5 11 10 30 10
43 0 20 -6 17 -50 -29 -37 -38 -50 -59 -50 -82 0 -16 -5 -33 -10 -36 -17 -11
0 -26 59 -53 31 -15 59 -28 64 -30 4 -2 7 6 7 17 0 17 -5 20 -22 16 -13 -2
-36 2 -53 10 -30 14 -29 14 19 8 49 -6 156 13 156 28 0 18 -24 21 -36 4 -17
-23 -91 -31 -139 -15 l-37 12 23 24 c26 28 36 25 19 -5 -6 -12 -8 -21 -4 -21
26 0 138 37 199 66 71 34 93 54 60 54 -8 0 -15 -4 -15 -10 0 -5 -14 -17 -31
-25 l-31 -16 26 38 c14 21 26 43 26 50 0 7 5 13 10 13 6 0 10 7 10 15 0 8 -7
15 -15 15 -8 0 -15 -9 -15 -20z"/>
<path d="M110 441 c0 -12 38 -80 58 -103 24 -28 -5 -22 -34 7 -28 28 -44 32
-44 10 0 -8 9 -15 19 -15 11 0 22 -4 25 -9 9 -15 147 -68 195 -76 l45 -7 -17
25 c-25 39 -21 44 12 12 l29 -29 -25 -13 c-42 -22 -119 -17 -143 9 -16 17 -23
19 -32 10 -25 -25 9 -37 102 -37 90 0 107 -12 31 -22 -25 -4 -41 -11 -41 -19
0 -16 16 -19 25 -5 3 5 18 12 35 16 40 9 83 44 72 59 -5 6 -12 27 -16 48 -5
25 -19 48 -49 74 -39 36 -42 37 -45 17 -2 -12 2 -32 9 -44 9 -17 1 -14 -33 14
-25 20 -48 37 -52 37 -9 0 22 -58 53 -99 l25 -34 -24 8 c-85 26 -150 90 -150
147 0 18 -5 28 -15 28 -8 0 -15 -4 -15 -9z"/>
</g>
</svg>
